Coordinates
version=1
nRows=13
nColumns=36
inDegrees=yes

Units are S.I. units (second, meters, Newtons, ...)
If the header above contains a line with 'inDegrees', this indicates whether rotational values are in degrees (yes) or radians (no).

endheader
time	pelvis_tilt	pelvis_list	pelvis_rotation	pelvis_tx	pelvis_ty	pelvis_tz	hip_flexion_r	hip_adduction_r	hip_rotation_r	knee_angle_r	knee_angle_r_beta	ankle_angle_r	subtalar_angle_r	mtp_angle_r	hip_flexion_l	hip_adduction_l	hip_rotation_l	knee_angle_l	knee_angle_l_beta	ankle_angle_l	subtalar_angle_l	mtp_angle_l	lumbar_extension	lumbar_bending	lumbar_rotation	arm_flex_r	arm_add_r	arm_rot_r	elbow_flex_r	pro_sup_r	arm_flex_l	arm_add_l	arm_rot_l	elbow_flex_l	pro_sup_l
      4.45000000	     -5.16004956	     -2.07616322	      8.76069813	      1.37679527	      0.94886669	     -0.22796294	     22.80423280	     -9.63955442	    -10.65322360	     37.90969134	      0.66164893	     21.39669278	     -2.44372970	     -7.49999987	     21.13656683	    -15.53140921	    -11.61877164	     34.95162039	      0.61002085	     21.25633976	      1.55766115	     -7.49999987	    -25.49778404	     -1.04733863	      0.73432660	     24.47710852	    -12.92415895	     14.04607011	     40.40052312	     85.42878312	     21.49773947	    -14.22233952	     -3.02825144	     25.10061808	     92.38077664
      4.46666670	     -3.10651120	     -1.37778437	      8.40212785	      1.37810591	      0.97029607	     -0.22790451	     17.62679629	     -9.58383466	    -11.42687626	     32.55482841	      0.56818894	     18.68307513	     -1.85761723	     -7.49999987	     15.24941579	    -14.36887835	    -13.30925402	     28.85727227	      0.50365441	     18.50839732	      1.21499960	     -7.49999987	    -25.71628104	     -1.45501535	      0.95161350	     21.31337763	    -13.77687744	     11.01681761	     37.55519051	     84.99059344	     18.20392763	    -13.55882406	    -11.68328676	     20.17000454	     89.87653831
      4.48333330	     -1.85682876	     -1.10444769	      8.14736438	      1.37933468	      0.98821102	     -0.22782094	     13.58092956	     -9.25995566	    -12.55678226	     27.32822527	      0.47696751	     15.89794430	     -0.97499981	     -7.49999987	     10.92351491	    -13.52019527	    -14.54867890	     23.43813186	      0.40907257	     15.56748708	      1.03544209	     -7.49999987	    -25.14672752	     -1.39762599	      0.91843709	     19.05175581	    -14.38327983	      9.31208338	     34.73275456	     84.59354234	     15.14833524	    -13.91836176	    -17.40202603	     15.94549803	     89.16861850
      4.50000000	     -0.97750350	     -0.95646130	      8.04897628	      1.38384132	      0.99670272	     -0.23161962	     10.39212017	     -8.83352793	    -13.35122343	     22.77314758	      0.39746641	     13.16764244	     -0.46625159	     -7.49999987	      7.41207216	    -12.66544058	    -15.29858968	     18.58149996	      0.32430835	     12.95824822	      0.75832107	     -7.49999987	    -23.97943011	     -1.05682782	      0.58121605	     16.90881810	    -15.00571937	      7.97290131	     31.86146252	     85.47208527	     12.05811714	    -14.24006995	    -25.99141045	     12.52410429	     95.55929835
      4.51666670	      0.48410396	     -0.87272734	      7.80987195	      1.39926113	      1.01757977	     -0.23423043	      6.18404277	     -8.07816799	    -14.07183011	     17.62974191	      0.30769704	     10.04453506	      0.00609331	     -7.49999987	      2.65355732	    -11.78946269	    -15.76096764	     12.91926849	      0.22548377	      9.66844975	      0.30721422	     -7.49999987	    -23.32095310	     -0.78007902	      0.87448751	     14.31163490	    -15.67976807	      6.87936613	     29.54163140	     86.45313283	      8.43134243	    -15.21636439	    -28.38831171	      8.22103152	     96.58035461
      4.53333330	      0.77800896	     -1.02077830	      7.59757996	      1.39343349	      1.02397696	     -0.22679712	      4.50015699	     -7.29184595	    -14.25345372	     14.68433054	      0.25628992	      7.36851156	     -0.48891773	     -7.49999987	      0.54988096	    -11.37811137	    -15.74794516	      9.66424779	      0.16867294	      7.71417108	     -0.27043961	     -7.49999987	    -21.99730302	     -0.65814976	      0.60902163	     11.55349218	    -15.79227192	      4.74341138	     28.43102916	     88.74025601	      4.46798422	    -15.58639571	    -37.78959112	      6.77222282	     98.70892095
      4.55000000	      1.15726103	     -1.17497791	      7.12161370	      1.39728456	      1.02829494	     -0.22946738	      3.05492494	     -6.54387228	    -14.07492440	     12.41643458	      0.21670766	      5.58911208	     -0.72933322	     -7.49999987	     -1.32556960	    -10.91218586	    -15.15590350	      7.29290048	      0.12728513	      7.41758242	     -0.40508488	     -7.49999987	    -20.87988762	     -0.56992400	      0.70475840	      8.95387716	    -16.24518173	      4.40994570	     27.85031666	     88.79183044	      1.26300610	    -16.04999270	    -38.55626161	      5.37342438	     98.69074956
      4.56666670	      1.95376677	     -1.35510765	      6.66228985	      1.41365352	      1.03289951	     -0.23128591	      1.03466411	     -5.73478937	    -14.00630526	     10.29040731	      0.17960149	      4.32324208	     -1.11256454	     -7.49999987	     -3.92891736	    -10.46861777	    -14.37443647	      5.21300874	      0.09098417	      7.19619878	     -0.62340233	     -7.49999987	    -19.84419519	     -0.33280351	      0.77383514	      6.12861958	    -16.56010878	      4.18768262	     27.13744879	     88.86904439	     -1.66172192	    -16.13125233	    -39.23860847	      4.42462490	     98.67030230
      4.58333330	      2.78053253	     -1.54774929	      6.38448769	      1.41707493	      1.04006200	     -0.23420647	     -0.90871063	     -4.87777421	    -13.56482085	      8.69567041	      0.15176808	      3.38347585	     -1.63616281	     -7.49999987	     -6.08370710	    -10.11891446	    -13.09974919	      3.61735997	      0.06313484	      7.19900427	     -0.83632662	     -7.49999987	    -19.45850514	     -0.09367837	      0.90890086	      3.69130621	    -16.82525743	      3.84604407	     26.32378799	     89.03774994	     -3.61605936	    -15.80703861	    -39.95455409	      4.07143758	     98.85603309
      4.60000000	      3.22565509	     -1.59378530	      6.21829188	      1.41491026	      1.03482939	     -0.23472515	     -2.05102827	     -4.13354760	    -12.68830905	      7.74368020	      0.13515272	      3.03806040	     -2.48726328	     -7.49999987	     -7.55005685	     -9.59837948	    -12.25825436	      2.49395776	      0.04352777	      7.23445992	     -0.74023827	     -7.49999987	    -18.94005953	      0.04883429	      1.18088040	      1.07676430	    -16.91069703	      3.38648329	     26.26877788	     86.49527662	     -4.49144765	    -15.36965913	    -40.25260840	      4.25747063	     96.64142017
      4.61666670	      3.43027942	     -1.52740501	      6.24776926	      1.41359572	      1.02733369	     -0.23429110	     -2.80058687	     -3.56036478	    -12.39584721	      6.99452472	      0.12207749	      3.39755755	     -2.60966296	     -7.49999987	     -8.30909019	     -9.07323000	    -11.02425734	      1.95765175	      0.03416747	      7.22194191	     -1.37476967	     -7.49999987	    -18.28401226	      0.07817316	      0.90712527	     -0.20046934	    -16.46488154	      0.92549583	     25.10644904	     90.32307466	     -5.08347489	    -14.98167082	    -43.69486699	      5.07441053	    103.85313643
      4.63333330	      3.75030380	     -1.44983003	      6.38510086	      1.42577569	      1.02668048	     -0.23254165	     -3.79222922	     -2.94130255	    -12.18744219	      6.13811297	      0.10713028	      3.95556273	     -2.86987860	     -7.49999987	     -9.13319882	     -8.64896741	    -10.58569155	      1.51232785	      0.02639510	      7.30674205	     -1.44470104	     -7.49999987	    -17.64824776	      0.01541621	      0.77532121	     -1.65949446	    -16.18582544	      0.99463191	     24.43875763	     90.32783210	     -5.51157645	    -14.70053195	    -43.65849820	      5.24057049	    103.86063293
      4.65000000	      4.38740994	     -1.25225814	      6.59767739	      1.42373621	      1.00935344	     -0.23793178	     -4.90370335	     -2.53352142	    -12.23541336	      5.48371452	      0.09570887	      4.37380186	     -3.40913649	     -7.49999987	    -10.15780497	     -8.10820945	     -9.98541858	      1.28318856	      0.02239587	      7.52102617	     -2.28559350	     -7.49999987	    -17.52457751	      0.04289068	      1.27036172	     -2.75943758	    -16.13999655	      1.02204301	     23.27666871	     90.46988117	     -5.24929328	    -14.25393925	    -43.36063122	      6.22055326	    104.16979060
